<svg width="40" height="40" viewBox="0 0 40 40" fill="none" xmlns="http://www.w3.org/2000/svg">
<path d="M40 20C40 31.0444 31.0444 40 20 40C8.95558 40 4.76837e-06 31.0444 4.76837e-06 20C4.76837e-06 8.95424 8.95491 0 20 0C31.0451 0 40 8.95424 40 20ZM37 20C37 10.6111 29.3883 3 20 3C10.6117 3 3 10.6111 3 20C3 29.3876 10.6124 37 20 37C29.3876 37 37 29.3876 37 20ZM24.0924 27.8314L23.9475 28C23.4162 28.5336 22.5829 28.5839 21.9948 28.1494L21.8262 28.0045L14.8542 21.0625C14.3189 20.5295 14.2703 19.6932 14.7082 19.1051L14.8542 18.9367L21.8262 11.9947C22.4133 11.4101 23.363 11.4122 23.9475 11.9992C24.4789 12.5329 24.5255 13.3663 24.0886 13.9526L23.943 14.1205L18.04 19.9976L23.943 25.8787C24.4767 26.41 24.5269 27.2433 24.0924 27.8314Z" fill="#00B657"/>
</svg>
